<svg xmlns="http://www.w3.org/2000/svg" xmlns:xlink="http://www.w3.org/1999/xlink" version="1.1" width="256" height="256" viewBox="0 0 256 256" xml:space="preserve">
<desc>Created with Fabric.js 1.7.22</desc>
<defs>
</defs>
<g transform="translate(128 128) scale(0.72 0.72)" style="">
	<g style="stroke: none; stroke-width: 0; stroke-dasharray: none; stroke-linecap: butt; stroke-linejoin: miter; stroke-miterlimit: 10; fill: none; fill-rule: nonzero; opacity: 1;" transform="translate(-175.05 -175.05000000000004) scale(3.89 3.89)" >
	<path d="M 83.298 25.054 c -0.384 0 -0.768 -0.146 -1.061 -0.439 L 71.146 13.523 c -0.586 -0.585 -0.586 -1.535 0 -2.121 s 1.535 -0.586 2.121 0 l 11.092 11.091 c 0.586 0.585 0.586 1.535 0 2.121 C 84.065 24.908 83.682 25.054 83.298 25.054 z" style="stroke: none; stroke-width: 1; stroke-dasharray: none; stroke-linecap: butt; stroke-linejoin: miter; stroke-miterlimit: 10; fill: rgb(236,198,68); fill-rule: nonzero; opacity: 1;" transform=" matrix(1 0 0 1 0 0) " stroke-linecap="round" />
	<path d="M 71.935 22.946 c -0.384 0 -0.768 -0.146 -1.061 -0.439 l -8.68 -8.68 c -0.586 -0.585 -0.586 -1.536 0 -2.121 c 0.586 -0.586 1.535 -0.586 2.121 0 l 8.68 8.68 c 0.586 0.585 0.586 1.536 0 2.121 C 72.702 22.799 72.318 22.946 71.935 22.946 z" style="stroke: none; stroke-width: 1; stroke-dasharray: none; stroke-linecap: butt; stroke-linejoin: miter; stroke-miterlimit: 10; fill: rgb(236,198,68); fill-rule: nonzero; opacity: 1;" transform=" matrix(1 0 0 1 0 0) " stroke-linecap="round" />
	<path d="M 54.342 55.326 c -0.384 0 -0.768 -0.146 -1.061 -0.439 L 37.88 39.485 c -0.586 -0.585 -0.586 -1.536 0 -2.121 c 0.586 -0.586 1.535 -0.586 2.121 0 l 15.401 15.401 c 0.586 0.586 0.586 1.535 0 2.121 C 55.109 55.18 54.726 55.326 54.342 55.326 z" style="stroke: none; stroke-width: 1; stroke-dasharray: none; stroke-linecap: butt; stroke-linejoin: miter; stroke-miterlimit: 10; fill: rgb(236,198,68); fill-rule: nonzero; opacity: 1;" transform=" matrix(1 0 0 1 0 0) " stroke-linecap="round" />
	<path d="M 48.076 58.315 c -0.384 0 -0.768 -0.146 -1.061 -0.439 l -9.136 -9.137 c -0.586 -0.586 -0.586 -1.535 0 -2.121 s 1.535 -0.586 2.121 0 l 9.136 9.137 c 0.586 0.586 0.586 1.535 0 2.121 C 48.844 58.169 48.46 58.315 48.076 58.315 z" style="stroke: none; stroke-width: 1; stroke-dasharray: none; stroke-linecap: butt; stroke-linejoin: miter; stroke-miterlimit: 10; fill: rgb(236,198,68); fill-rule: nonzero; opacity: 1;" transform=" matrix(1 0 0 1 0 0) " stroke-linecap="round" />
	<path d="M 56.875 48.604 c -0.384 0 -0.768 -0.146 -1.061 -0.439 l -8.681 -8.68 c -0.586 -0.585 -0.586 -1.535 0 -2.121 s 1.535 -0.586 2.121 0 l 8.681 8.68 c 0.586 0.586 0.586 1.535 0 2.121 C 57.643 48.458 57.259 48.604 56.875 48.604 z" style="stroke: none; stroke-width: 1; stroke-dasharray: none; stroke-linecap: butt; stroke-linejoin: miter; stroke-miterlimit: 10; fill: rgb(236,198,68); fill-rule: nonzero; opacity: 1;" transform=" matrix(1 0 0 1 0 0) " stroke-linecap="round" />
	<path d="M 23.554 84.797 c -0.384 0 -0.768 -0.146 -1.061 -0.439 L 11.403 73.267 c -0.586 -0.586 -0.586 -1.535 0 -2.121 s 1.535 -0.586 2.121 0 l 11.091 11.091 c 0.586 0.586 0.586 1.535 0 2.121 C 24.322 84.65 23.938 84.797 23.554 84.797 z" style="stroke: none; stroke-width: 1; stroke-dasharray: none; stroke-linecap: butt; stroke-linejoin: miter; stroke-miterlimit: 10; fill: rgb(236,198,68); fill-rule: nonzero; opacity: 1;" transform=" matrix(1 0 0 1 0 0) " stroke-linecap="round" />
	<path d="M 21.446 73.435 c -0.384 0 -0.768 -0.146 -1.061 -0.439 l -9.003 -9.003 c -0.586 -0.586 -0.586 -1.535 0 -2.121 s 1.535 -0.586 2.121 0 l 9.003 9.003 c 0.586 0.586 0.586 1.535 0 2.121 C 22.213 73.288 21.83 73.435 21.446 73.435 z" style="stroke: none; stroke-width: 1; stroke-dasharray: none; stroke-linecap: butt; stroke-linejoin: miter; stroke-miterlimit: 10; fill: rgb(236,198,68); fill-rule: nonzero; opacity: 1;" transform=" matrix(1 0 0 1 0 0) " stroke-linecap="round" />
	<path d="M 26.721 63.278 c -7.825 -1.503 -14.62 -2.231 -20.018 3.168 c -1.534 1.534 -4.019 1.533 -5.553 0 s -1.534 -4.019 0 -5.553 c 7.245 -7.245 15.839 -7.185 24.004 -5.868" style="stroke: none; stroke-width: 1; stroke-dasharray: none; stroke-linecap: butt; stroke-linejoin: miter; stroke-miterlimit: 10; fill: rgb(221,55,55); fill-rule: nonzero; opacity: 1;" transform=" matrix(1 0 0 1 0 0) " stroke-linecap="round" />
	<path d="M 34.975 64.848 c 8.164 1.316 16.758 1.376 24.003 -5.869 c 5.663 -5.663 6.863 -12.151 6.489 -18.613 l -7.932 -0.867 c 0.509 5.293 -0.165 9.983 -4.109 13.927 c -5.399 5.399 -12.194 4.671 -20.019 3.168 L 34.975 64.848 z" style="stroke: none; stroke-width: 1; stroke-dasharray: none; stroke-linecap: butt; stroke-linejoin: miter; stroke-miterlimit: 10; fill: rgb(221,55,55); fill-rule: nonzero; opacity: 1;" transform=" matrix(1 0 0 1 0 0) " stroke-linecap="round" />
	<path d="M 63.279 26.722 c 7.825 1.503 14.62 2.23 20.018 -3.168 c 1.533 -1.533 4.019 -1.533 5.553 0 c 1.533 1.533 1.533 4.019 0 5.553 c -7.245 7.245 -15.839 7.185 -24.003 5.869" style="stroke: none; stroke-width: 1; stroke-dasharray: none; stroke-linecap: butt; stroke-linejoin: miter; stroke-miterlimit: 10; fill: rgb(172,221,55); fill-rule: nonzero; opacity: 1;" transform=" matrix(1 0 0 1 0 0) " stroke-linecap="round" />
	<path d="M 31.388 27.266 c -0.51 0 -1.007 -0.26 -1.288 -0.729 l -6.082 -10.148 c -0.426 -0.71 -0.195 -1.632 0.516 -2.058 c 0.71 -0.425 1.631 -0.195 2.058 0.516 l 6.082 10.148 c 0.426 0.71 0.195 1.632 -0.516 2.058 C 31.916 27.197 31.65 27.266 31.388 27.266 z" style="stroke: none; stroke-width: 1; stroke-dasharray: none; stroke-linecap: butt; stroke-linejoin: miter; stroke-miterlimit: 10; fill: rgb(236,198,68); fill-rule: nonzero; opacity: 1;" transform=" matrix(1 0 0 1 0 0) " stroke-linecap="round" />
	<path d="M 27.49 30.869 c -0.167 0 -0.336 -0.028 -0.502 -0.087 L 15.106 26.56 c -0.78 -0.278 -1.188 -1.135 -0.911 -1.916 c 0.277 -0.781 1.135 -1.188 1.916 -0.911 l 11.881 4.223 c 0.78 0.278 1.188 1.135 0.911 1.916 C 28.685 30.485 28.106 30.869 27.49 30.869 z" style="stroke: none; stroke-width: 1; stroke-dasharray: none; stroke-linecap: butt; stroke-linejoin: miter; stroke-miterlimit: 10; fill: rgb(236,198,68); fill-rule: nonzero; opacity: 1;" transform=" matrix(1 0 0 1 0 0) " stroke-linecap="round" />
	<path d="M 36.402 25.528 c -0.074 0 -0.149 -0.005 -0.226 -0.017 c -0.819 -0.124 -1.383 -0.888 -1.26 -1.707 l 1.878 -12.469 c 0.124 -0.819 0.881 -1.383 1.707 -1.26 c 0.819 0.124 1.383 0.888 1.26 1.707 l -1.878 12.469 C 37.771 24.995 37.132 25.528 36.402 25.528 z" style="stroke: none; stroke-width: 1; stroke-dasharray: none; stroke-linecap: butt; stroke-linejoin: miter; stroke-miterlimit: 10; fill: rgb(236,198,68); fill-rule: nonzero; opacity: 1;" transform=" matrix(1 0 0 1 0 0) " stroke-linecap="round" />
	<path d="M 57.535 39.499 c -0.263 -2.734 -0.842 -5.629 -1.449 -8.665 c -1.943 -9.717 -4.146 -20.73 4.807 -29.684 c 1.533 -1.533 4.019 -1.533 5.553 0 c 1.533 1.533 1.533 4.019 0 5.553 c -5.982 5.982 -4.443 13.679 -2.66 22.591 c 0.714 3.571 1.464 7.317 1.681 11.072 L 57.535 39.499 z" style="stroke: none; stroke-width: 1; stroke-dasharray: none; stroke-linecap: butt; stroke-linejoin: miter; stroke-miterlimit: 10; fill: rgb(221,55,55); fill-rule: nonzero; opacity: 1;" transform=" matrix(1 0 0 1 0 0) " stroke-linecap="round" />
	<path d="M 30.303 37.253 c 2.165 0.552 3.498 2.809 2.809 4.934 c -1.598 4.926 -0.465 10.644 0.802 16.98 c 1.943 9.717 4.146 20.73 -4.807 29.683 c -2.431 2.431 -7.253 1.008 -6.884 -4.264 c 0.004 -0.059 0.035 -0.117 0.08 -0.155 c 7.43 -6.13 5.807 -14.238 3.911 -23.725 c -1.338 -6.691 -2.797 -13.996 -0.652 -20.82 C 26.189 37.89 28.276 36.736 30.303 37.253 L 30.303 37.253 z" style="stroke: none; stroke-width: 1; stroke-dasharray: none; stroke-linecap: butt; stroke-linejoin: miter; stroke-miterlimit: 10; fill: rgb(172,221,55); fill-rule: nonzero; opacity: 1;" transform=" matrix(1 0 0 1 0 0) " stroke-linecap="round" />
	<path d="M 55.033 25.198 c -0.02 -0.019 -0.034 -0.033 -0.054 -0.053 c -2.782 -0.447 -5.612 -0.742 -8.422 -0.652 c -2.76 0.088 -4.543 2.969 -3.442 5.501 l 0 0 c 0.638 1.467 2.1 2.418 3.698 2.358 c 3.007 -0.113 6.244 0.377 9.684 1.036 c 0.045 0.009 0.085 -0.03 0.076 -0.075 L 55.033 25.198 z" style="stroke: none; stroke-width: 1; stroke-dasharray: none; stroke-linecap: butt; stroke-linejoin: miter; stroke-miterlimit: 10; fill: rgb(172,221,55); fill-rule: nonzero; opacity: 1;" transform=" matrix(1 0 0 1 0 0) " stroke-linecap="round" />
</g>
</g>
</svg>